<svg width="54" height="54" viewBox="0 0 54 54" fill="none" xmlns="http://www.w3.org/2000/svg">
<rect width="54" height="54" rx="27" fill="#0F0F0F"/>
<path d="M16.2202 19.9697C15.4038 19.6367 14.7378 19.0942 14.2222 18.3423C13.7173 17.5903 13.4648 16.7471 13.4648 15.8125C13.4648 14.9854 13.6689 14.2334 14.0771 13.5566C14.4854 12.8799 15.0278 12.3481 15.7046 11.9614C16.3813 11.564 17.1279 11.376 17.9443 11.3975C17.9443 11.0322 18.0464 10.6831 18.2505 10.3501C18.4546 10.0063 18.7285 9.73779 19.0723 9.54443C19.416 9.34033 19.792 9.25439 20.2002 9.28662C20.3506 8.58838 20.7803 7.94922 21.4893 7.36914C22.209 6.77832 23.1436 6.48291 24.293 6.48291C25.1523 6.48291 25.9365 6.71387 26.6455 7.17578C27.3545 7.6377 27.8862 8.26074 28.2407 9.04492C28.4663 8.99121 28.7026 8.9751 28.9497 8.99658C29.2075 9.00732 29.4385 9.03955 29.6426 9.09326C30.0293 8.73877 30.4697 8.47021 30.9639 8.2876C31.458 8.09424 31.9844 7.99756 32.543 7.99756C33.4131 7.99756 34.1543 8.23926 34.7666 8.72266C35.3896 9.19531 35.8677 9.82373 36.2007 10.6079C37.0601 10.6294 37.812 10.8496 38.4565 11.2686C39.1118 11.6768 39.6221 12.2354 39.9873 12.9443C40.3525 13.6533 40.5352 14.4697 40.5352 15.3936C40.5352 16.3604 40.2773 17.2412 39.7617 18.0361C39.2568 18.8203 38.6016 19.4111 37.7959 19.8086L36.4746 17.7783C36.9688 17.6279 37.3823 17.3486 37.7153 16.9404C38.0591 16.5215 38.231 16.0596 38.231 15.5547C38.231 14.9316 38.0806 14.4214 37.7798 14.0239C37.4897 13.6157 37.0869 13.3364 36.5713 13.186C36.0557 13.0249 35.4648 12.998 34.7988 13.1055C34.8203 12.2998 34.6484 11.6392 34.2832 11.1235C33.918 10.5972 33.3755 10.334 32.6558 10.334C32.1401 10.334 31.6782 10.4683 31.27 10.7368C30.8618 11.0054 30.5503 11.3813 30.3354 11.8647C30.0454 11.6392 29.6748 11.478 29.2236 11.3813C28.7832 11.2847 28.332 11.2632 27.8701 11.3169C27.4082 11.3706 27 11.5103 26.6455 11.7358C26.7744 10.7798 26.5757 10.0547 26.0493 9.56055C25.5229 9.06641 24.9375 8.81934 24.293 8.81934C23.6162 8.81934 23.0415 9.07715 22.5688 9.59277C22.1069 10.0977 22.0049 10.8228 22.2627 11.7681C21.7148 11.4995 21.1885 11.4351 20.6836 11.5747C20.1787 11.7144 19.7759 11.9883 19.4751 12.3965C19.1851 12.8047 19.0776 13.2827 19.1528 13.8306C18.5728 13.6479 18.0249 13.6265 17.5093 13.7661C16.9937 13.895 16.5747 14.1421 16.2524 14.5073C15.9302 14.8726 15.769 15.3076 15.769 15.8125C15.769 16.2852 15.9033 16.7041 16.1719 17.0693C16.4404 17.4346 16.7842 17.6763 17.2031 17.7944L16.2202 19.9697ZM20.6514 44.6553C19.502 44.6553 18.6157 44.3384 17.9927 43.7046C17.3804 43.0815 16.9668 42.1899 16.752 41.0298L13.3359 23.0312C13.1104 21.8389 13.2178 20.7969 13.6582 19.9053C14.0986 19.0029 14.7539 18.3047 15.624 17.8105C16.5049 17.3057 17.4878 17.0532 18.5728 17.0532C19.3032 17.0532 19.9746 17.1982 20.5869 17.4883C21.21 17.7676 21.7471 18.165 22.1982 18.6807C22.6602 17.9395 23.3047 17.3486 24.1318 16.9082C24.9697 16.457 25.9258 16.2314 27 16.2314C28.085 16.2314 29.041 16.457 29.8682 16.9082C30.7061 17.3486 31.3506 17.9395 31.8018 18.6807C32.2529 18.165 32.79 17.7676 33.4131 17.4883C34.0361 17.1982 34.7129 17.0532 35.4434 17.0532C36.5176 17.0532 37.4951 17.3057 38.376 17.8105C39.2568 18.3047 39.9175 19.0029 40.3579 19.9053C40.7983 20.7969 40.9058 21.8389 40.6802 23.0312L38.5693 34.2139L36.1523 34.1011L38.3115 22.9023C38.4512 22.1826 38.3975 21.5649 38.1504 21.0493C37.9033 20.5337 37.5327 20.1416 37.0386 19.873C36.5552 19.5938 36.0234 19.4541 35.4434 19.4541C34.7129 19.4541 34.0845 19.6904 33.5581 20.1631C33.0425 20.625 32.7471 21.3018 32.6719 22.1934L31.2378 38.0649L28.7563 39.1606L30.2871 22.0967C30.3838 21.0547 30.1313 20.2168 29.5298 19.583C28.939 18.9492 28.0957 18.6323 27 18.6323C25.915 18.6323 25.0718 18.9492 24.4702 19.583C23.8687 20.2168 23.6216 21.0547 23.729 22.0967L25.5498 42.2544H30.6255L30.7222 44.6553H20.6514ZM20.7319 42.2544H23.1489L21.3442 22.1934C21.2583 21.3018 20.9521 20.625 20.4258 20.1631C19.9102 19.6904 19.2925 19.4541 18.5728 19.4541C17.9927 19.4541 17.4556 19.5938 16.9614 19.873C16.478 20.1416 16.1074 20.5337 15.8496 21.0493C15.6025 21.5649 15.5488 22.1826 15.6885 22.9023L19.1689 40.917C19.2549 41.3574 19.4268 41.6904 19.6846 41.916C19.9424 42.1416 20.2915 42.2544 20.7319 42.2544ZM35.7979 47.2334C35.0137 47.2334 34.2832 47.04 33.6064 46.6533C32.9404 46.2666 32.4248 45.7617 32.0596 45.1387C31.3184 45.0742 30.647 44.8433 30.0454 44.4458C29.4546 44.0591 28.9819 43.5542 28.6274 42.9312C28.2729 42.3081 28.0957 41.6206 28.0957 40.8687C28.0957 39.8696 28.418 38.978 29.0625 38.1938C29.707 37.4097 30.5073 36.9102 31.4634 36.6953C31.5386 35.5781 31.9897 34.6812 32.8169 34.0044C33.644 33.3276 34.6377 32.9893 35.7979 32.9893C36.582 32.9893 37.2964 33.1504 37.9409 33.4727C38.5854 33.7949 39.1064 34.2461 39.5039 34.8262C39.9014 35.4062 40.1162 36.083 40.1484 36.8564C40.8896 37.2324 41.502 37.7803 41.9854 38.5C42.4795 39.209 42.7266 40.0039 42.7266 40.8848C42.7266 41.8623 42.4258 42.7324 41.8242 43.4951C41.2334 44.2686 40.4546 44.7681 39.4878 44.9937C39.144 45.6704 38.6392 46.2129 37.9731 46.6211C37.3071 47.0293 36.582 47.2334 35.7979 47.2334ZM35.7979 45.1548C36.3672 45.1548 36.8828 44.9561 37.3447 44.5586C37.8174 44.1611 38.0376 43.6509 38.0054 43.0278C38.811 43.103 39.4448 42.9473 39.9067 42.5605C40.3687 42.1846 40.5996 41.6528 40.5996 40.9653C40.5996 40.1812 40.3687 39.5635 39.9067 39.1123C39.4448 38.6719 38.8379 38.4946 38.0859 38.5806C38.2578 38.0112 38.2793 37.458 38.1504 36.9209C38.0215 36.3838 37.7529 35.9434 37.3447 35.5996C36.9473 35.2451 36.4316 35.0679 35.7979 35.0679C35.1426 35.0679 34.6216 35.2505 34.2349 35.6157C33.8481 35.9702 33.5957 36.4106 33.4775 36.937C33.3701 37.4526 33.4023 37.9629 33.5742 38.4678C32.5645 38.2959 31.7427 38.4302 31.1089 38.8706C30.4751 39.3218 30.1582 39.9878 30.1582 40.8687C30.1582 41.4487 30.3193 41.9214 30.6416 42.2866C30.9746 42.6519 31.3936 42.8936 31.8984 43.0117C32.4033 43.1299 32.9297 43.103 33.4775 42.9312C33.4453 43.6616 33.6709 44.2148 34.1543 44.5908C34.6377 44.9668 35.1855 45.1548 35.7979 45.1548Z" fill="white"/>
</svg>
