<svg width="54" height="54" viewBox="0 0 54 54" fill="none" xmlns="http://www.w3.org/2000/svg">
<rect width="54" height="54" rx="27" fill="#0F0F0F"/>
<path d="M13.4487 42.77V14.5879C13.4487 12.9229 13.8677 11.6768 14.7056 10.8496C15.5542 10.0117 16.8218 9.59277 18.5083 9.59277H35.4917C37.1782 9.59277 38.4404 10.0117 39.2783 10.8496C40.127 11.6768 40.5513 12.9229 40.5513 14.5879V42.77C40.5513 43.1997 40.4492 43.5649 40.2451 43.8657C40.041 44.1665 39.7671 44.3921 39.4233 44.5425C39.0903 44.6929 38.7197 44.7466 38.3115 44.7036C37.9141 44.6606 37.5112 44.4995 37.103 44.2202L35.1372 42.9473L32.9619 44.3975C32.5967 44.6553 32.2207 44.6553 31.834 44.3975L29.707 42.9312L27.5479 44.3975C27.1611 44.6553 26.7852 44.6553 26.4199 44.3975L24.2607 42.9312L22.1338 44.3975C21.7578 44.6553 21.3818 44.6553 21.0059 44.3975L18.8467 42.9473L16.897 44.2202C16.4888 44.4995 16.0806 44.6606 15.6724 44.7036C15.2642 44.7466 14.8936 44.6929 14.5605 44.5425C14.2275 44.3921 13.959 44.1665 13.7549 43.8657C13.5508 43.5649 13.4487 43.1997 13.4487 42.77ZM16.043 41.8516L18.2988 40.3691C18.4922 40.2402 18.6748 40.1758 18.8467 40.1758C19.0293 40.1758 19.2119 40.2402 19.3945 40.3691L21.5698 41.8516L23.7129 40.3691C24.0781 40.1113 24.4434 40.1113 24.8086 40.3691L26.9839 41.8516L29.1753 40.3691C29.5405 40.1113 29.9058 40.1113 30.271 40.3691L32.3979 41.8516L34.5732 40.3691C34.7559 40.2402 34.9385 40.1758 35.1211 40.1758C35.3037 40.1758 35.4863 40.2402 35.6689 40.3691L37.9409 41.8516L37.957 14.7329C37.957 13.895 37.7422 13.2612 37.3125 12.8315C36.8828 12.4019 36.2651 12.187 35.4595 12.187H18.5405C17.7349 12.187 17.1172 12.4019 16.6875 12.8315C16.2578 13.2612 16.043 13.895 16.043 14.7329V41.8516ZM20.2485 18.9062C19.9585 18.9062 19.7168 18.8149 19.5234 18.6323C19.3408 18.439 19.2495 18.2026 19.2495 17.9233C19.2495 17.644 19.3408 17.4077 19.5234 17.2144C19.7168 17.021 19.9585 16.9243 20.2485 16.9243H28.3696C28.6597 16.9243 28.896 17.021 29.0786 17.2144C29.272 17.4077 29.3687 17.644 29.3687 17.9233C29.3687 18.2026 29.272 18.439 29.0786 18.6323C28.896 18.8149 28.6597 18.9062 28.3696 18.9062H20.2485ZM32.3657 18.9062C32.0757 18.9062 31.834 18.8149 31.6406 18.6323C31.458 18.439 31.3667 18.2026 31.3667 17.9233C31.3667 17.644 31.458 17.4077 31.6406 17.2144C31.834 17.021 32.0757 16.9243 32.3657 16.9243H33.7192C34.02 16.9243 34.2617 17.021 34.4443 17.2144C34.6377 17.4077 34.7344 17.644 34.7344 17.9233C34.7344 18.2026 34.6377 18.439 34.4443 18.6323C34.2617 18.8149 34.02 18.9062 33.7192 18.9062H32.3657ZM20.2485 24.6587C19.9585 24.6587 19.7168 24.5674 19.5234 24.3848C19.3408 24.1914 19.2495 23.9604 19.2495 23.6919C19.2495 23.4019 19.3408 23.1602 19.5234 22.9668C19.7168 22.7734 19.9585 22.6768 20.2485 22.6768H28.3696C28.6597 22.6768 28.896 22.7734 29.0786 22.9668C29.272 23.1602 29.3687 23.4019 29.3687 23.6919C29.3687 23.9604 29.272 24.1914 29.0786 24.3848C28.896 24.5674 28.6597 24.6587 28.3696 24.6587H20.2485ZM32.3657 24.6587C32.0757 24.6587 31.834 24.5674 31.6406 24.3848C31.458 24.1914 31.3667 23.9604 31.3667 23.6919C31.3667 23.4019 31.458 23.1602 31.6406 22.9668C31.834 22.7734 32.0757 22.6768 32.3657 22.6768H33.7192C34.02 22.6768 34.2617 22.7734 34.4443 22.9668C34.6377 23.1602 34.7344 23.4019 34.7344 23.6919C34.7344 23.9604 34.6377 24.1914 34.4443 24.3848C34.2617 24.5674 34.02 24.6587 33.7192 24.6587H32.3657ZM20.2485 30.2983C19.9585 30.2983 19.7168 30.207 19.5234 30.0244C19.3408 29.8311 19.2495 29.6001 19.2495 29.3315C19.2495 29.0522 19.3408 28.8159 19.5234 28.6226C19.7168 28.4185 19.9585 28.3164 20.2485 28.3164H28.3857C28.6758 28.3164 28.9175 28.4185 29.1108 28.6226C29.3042 28.8159 29.4009 29.0522 29.4009 29.3315C29.4009 29.6001 29.3042 29.8311 29.1108 30.0244C28.9175 30.207 28.6758 30.2983 28.3857 30.2983H20.2485ZM32.3496 30.2983C32.0596 30.2983 31.8179 30.207 31.6245 30.0244C31.4419 29.8311 31.3506 29.6001 31.3506 29.3315C31.3506 29.0522 31.4419 28.8159 31.6245 28.6226C31.8179 28.4185 32.0596 28.3164 32.3496 28.3164H33.7192C34.02 28.3164 34.2617 28.4185 34.4443 28.6226C34.6377 28.8159 34.7344 29.0522 34.7344 29.3315C34.7344 29.6001 34.6377 29.8311 34.4443 30.0244C34.2617 30.207 34.02 30.2983 33.7192 30.2983H32.3496ZM20.2485 36.0669C19.9585 36.0669 19.7168 35.9756 19.5234 35.793C19.3408 35.5996 19.2495 35.3633 19.2495 35.084C19.2495 34.8047 19.3408 34.5684 19.5234 34.375C19.7168 34.1816 19.9585 34.085 20.2485 34.085H28.3857C28.6758 34.085 28.9175 34.1816 29.1108 34.375C29.3042 34.5684 29.4009 34.8047 29.4009 35.084C29.4009 35.3633 29.3042 35.5996 29.1108 35.793C28.9175 35.9756 28.6758 36.0669 28.3857 36.0669H20.2485ZM32.3496 36.0669C32.0596 36.0669 31.8179 35.9756 31.6245 35.793C31.4419 35.5996 31.3506 35.3633 31.3506 35.084C31.3506 34.8047 31.4419 34.5684 31.6245 34.375C31.8179 34.1816 32.0596 34.085 32.3496 34.085H33.7192C34.02 34.085 34.2617 34.1816 34.4443 34.375C34.6377 34.5684 34.7344 34.8047 34.7344 35.084C34.7344 35.3633 34.6377 35.5996 34.4443 35.793C34.2617 35.9756 34.02 36.0669 33.7192 36.0669H32.3496Z" fill="white"/>
</svg>
