<svg width="54" height="54" viewBox="0 0 54 54" fill="none" xmlns="http://www.w3.org/2000/svg">
<rect width="54" height="54" rx="27" fill="#0F0F0F"/>
<path d="M32.6133 40.6562C31.832 40.6562 31.2422 40.4531 30.8438 40.0469C30.4453 39.6484 30.207 39.0273 30.1289 38.1836L28.8984 25.4219C28.8672 25.1016 28.9375 24.8398 29.1094 24.6367C29.2891 24.4336 29.5352 24.332 29.8477 24.332H40.793C41.1133 24.332 41.3594 24.4336 41.5312 24.6367C41.7109 24.832 41.7852 25.0938 41.7539 25.4219L40.5234 38.1836C40.4375 39.0273 40.1953 39.6484 39.7969 40.0469C39.3984 40.4531 38.8125 40.6562 38.0391 40.6562H32.6133ZM32.6836 38.8281H37.9688C38.4219 38.8281 38.6719 38.5898 38.7188 38.1133L39.8555 26.1602H30.7969L31.9219 38.1133C31.9766 38.5898 32.2305 38.8281 32.6836 38.8281ZM34.5586 24.9297L34.6523 23.7344C34.707 23.1562 34.8398 22.6758 35.0508 22.293C35.2617 21.9023 35.5938 21.543 36.0469 21.2148L39.8203 18.4844C40.0547 18.3125 40.2773 18.2539 40.4883 18.3086C40.707 18.3555 40.8789 18.4648 41.0039 18.6367C41.1367 18.8086 41.1953 19.0039 41.1797 19.2227C41.1641 19.4336 41.043 19.6172 40.8164 19.7734L36.9023 22.5859C36.6836 22.7422 36.5234 22.9141 36.4219 23.1016C36.3281 23.2891 36.2695 23.5312 36.2461 23.8281L36.1758 24.9297H34.5586ZM15.8086 38.6641C14.6211 38.6641 13.7266 38.3672 13.125 37.7734C12.5312 37.1875 12.2344 36.3086 12.2344 35.1367V22.8555C12.2344 22.4492 12.2656 22.1328 12.3281 21.9062C12.3984 21.6719 12.5312 21.4258 12.7266 21.168L14.9531 18.2031V15.9766C14.9531 15.1484 15.1875 14.5117 15.6562 14.0664C16.1328 13.6211 16.8125 13.3984 17.6953 13.3984H27.5625C28.4453 13.3984 29.1211 13.6211 29.5898 14.0664C30.0664 14.5117 30.3047 15.1484 30.3047 15.9766V18.2031L32.543 21.168C32.7227 21.4102 32.8477 21.6406 32.918 21.8594C32.9883 22.0781 33.0234 22.3672 33.0234 22.7266H31.125C31.125 22.5781 31.1133 22.4609 31.0898 22.375C31.0664 22.2812 31.0156 22.1836 30.9375 22.082L28.6523 19.0586C28.5664 18.9414 28.5039 18.8281 28.4648 18.7188C28.4336 18.6094 28.418 18.4805 28.418 18.332V16.2344C28.418 15.6016 28.1289 15.2852 27.5508 15.2852H17.7188C17.1328 15.2852 16.8398 15.6016 16.8398 16.2344V18.332C16.8398 18.4805 16.8203 18.6094 16.7812 18.7188C16.75 18.8281 16.6914 18.9414 16.6055 19.0586L14.3203 22.082C14.2344 22.1992 14.1797 22.3164 14.1562 22.4336C14.1328 22.5508 14.1211 22.7227 14.1211 22.9492V35.043C14.1211 36.1992 14.6914 36.7773 15.832 36.7773H28.3945L28.5352 38.3359C28.543 38.3906 28.5469 38.4453 28.5469 38.5C28.5547 38.5547 28.5625 38.6094 28.5703 38.6641H15.8086ZM19.4531 18.6133C19.25 18.6133 19.0742 18.5391 18.9258 18.3906C18.7773 18.2422 18.7031 18.0625 18.7031 17.8516C18.7031 17.6406 18.7773 17.4609 18.9258 17.3125C19.0742 17.1562 19.25 17.0781 19.4531 17.0781H25.7695C25.9727 17.0781 26.1484 17.1562 26.2969 17.3125C26.4453 17.4609 26.5195 17.6406 26.5195 17.8516C26.5195 18.0625 26.4453 18.2422 26.2969 18.3906C26.1484 18.5391 25.9727 18.6133 25.7695 18.6133H19.4531Z" fill="white"/>
</svg>
