<svg width="54" height="54" viewBox="0 0 54 54" fill="none" xmlns="http://www.w3.org/2000/svg">
<rect width="54" height="54" rx="27" fill="#0F0F0F"/>
<path d="M18.0312 42.4375C16.3958 42.4375 15.1667 42.0312 14.3438 41.2188C13.5312 40.4167 13.125 39.2083 13.125 37.5938V21.4219C13.125 19.8073 13.5312 18.599 14.3438 17.7969C15.1667 16.9844 16.3958 16.5781 18.0312 16.5781H35.9531C37.5781 16.5781 38.8021 16.9844 39.625 17.7969C40.4479 18.599 40.8594 19.8073 40.8594 21.4219V37.5938C40.8594 39.2083 40.4688 40.4167 39.6875 41.2188C38.9062 42.0312 37.8177 42.4375 36.4219 42.4375H18.0312ZM18.0625 39.9219H36.375C36.9167 39.9219 37.3802 39.7135 37.7656 39.2969C38.151 38.8906 38.3438 38.2812 38.3438 37.4688V21.5469C38.3438 20.7344 38.1302 20.125 37.7031 19.7188C37.276 19.3021 36.6771 19.0938 35.9062 19.0938H18.0625C17.2812 19.0938 16.6823 19.3021 16.2656 19.7188C15.849 20.125 15.6406 20.7344 15.6406 21.5469V37.4688C15.6406 38.2812 15.849 38.8906 16.2656 39.2969C16.6823 39.7135 17.2812 39.9219 18.0625 39.9219ZM20.8281 17.1875C20.8281 16.0312 21.099 14.9896 21.6406 14.0625C22.1823 13.125 22.9167 12.3802 23.8438 11.8281C24.7708 11.276 25.8177 11 26.9844 11C28.151 11 29.1979 11.276 30.125 11.8281C31.0625 12.3802 31.8021 13.125 32.3438 14.0625C32.8854 14.9896 33.1562 16.0312 33.1562 17.1875L30.6406 17.2031C30.6406 16.4531 30.4844 15.7917 30.1719 15.2188C29.8698 14.6458 29.4427 14.1979 28.8906 13.875C28.349 13.5417 27.7135 13.375 26.9844 13.375C26.2656 13.375 25.6302 13.5417 25.0781 13.875C24.5365 14.1979 24.1094 14.6458 23.7969 15.2188C23.4948 15.7917 23.3438 16.4531 23.3438 17.2031L20.8281 17.1875Z" fill="white"/>
</svg>
