<svg width="54" height="54" viewBox="0 0 54 54" fill="none" xmlns="http://www.w3.org/2000/svg">
<rect width="54" height="54" rx="27" fill="#0F0F0F"/>
<path d="M18.2842 23.5244C18.39 23.0931 18.512 22.6374 18.6504 22.1572C18.7969 21.6771 18.9474 21.2336 19.1021 20.8267C19.2567 20.4116 19.3991 20.0942 19.5293 19.8745C19.6839 19.5978 19.8589 19.3944 20.0542 19.2642C20.2576 19.134 20.5181 19.0444 20.8354 18.9956C21.2749 18.9305 22.0033 18.8817 23.0205 18.8491C24.0378 18.8084 25.3643 18.7881 27 18.7881C28.6357 18.7881 29.9622 18.8084 30.9795 18.8491C31.9967 18.8817 32.7251 18.9305 33.1646 18.9956C33.4819 19.0444 33.7383 19.134 33.9336 19.2642C34.137 19.3944 34.3161 19.5978 34.4707 19.8745C34.6009 20.0942 34.7433 20.4116 34.8979 20.8267C35.0526 21.2336 35.2031 21.6771 35.3496 22.1572C35.4961 22.6374 35.6182 23.0931 35.7158 23.5244C35.7646 23.7441 35.7443 23.8988 35.6548 23.9883C35.5653 24.0778 35.4066 24.1144 35.1787 24.0981C34.5277 24.0493 33.8156 24.0086 33.0425 23.9761C32.2775 23.9354 31.4027 23.9069 30.418 23.8906C29.4414 23.8662 28.3021 23.854 27 23.854C25.6979 23.854 24.5545 23.8662 23.5698 23.8906C22.5933 23.9069 21.7225 23.9354 20.9575 23.9761C20.1925 24.0086 19.4845 24.0493 18.8335 24.0981C18.5975 24.1144 18.4347 24.0778 18.3452 23.9883C18.2557 23.8988 18.2354 23.7441 18.2842 23.5244ZM18.1987 31.8374C17.6372 31.8374 17.1693 31.6502 16.7949 31.2759C16.4206 30.8934 16.2334 30.4255 16.2334 29.8721C16.2334 29.3105 16.4206 28.8426 16.7949 28.4683C17.1693 28.0939 17.6372 27.9067 18.1987 27.9067C18.7603 27.9067 19.2282 28.0939 19.6025 28.4683C19.9769 28.8426 20.1641 29.3105 20.1641 29.8721C20.1641 30.4255 19.9769 30.8934 19.6025 31.2759C19.2282 31.6502 18.7603 31.8374 18.1987 31.8374ZM23.7773 31.3491C23.3542 31.3491 23.0124 31.2189 22.752 30.9585C22.4915 30.6981 22.3613 30.3563 22.3613 29.9331C22.3613 29.5181 22.4915 29.1803 22.752 28.9199C23.0124 28.6595 23.3542 28.5293 23.7773 28.5293H30.2349C30.6499 28.5293 30.9876 28.6595 31.248 28.9199C31.5085 29.1803 31.6387 29.5181 31.6387 29.9331C31.6387 30.3563 31.5085 30.6981 31.248 30.9585C30.9876 31.2189 30.6499 31.3491 30.2349 31.3491H23.7773ZM35.8013 31.8374C35.2479 31.8374 34.784 31.6502 34.4097 31.2759C34.0353 30.8934 33.8481 30.4255 33.8481 29.8721C33.8481 29.3105 34.0353 28.8426 34.4097 28.4683C34.784 28.0939 35.2479 27.9067 35.8013 27.9067C36.3628 27.9067 36.8307 28.0939 37.2051 28.4683C37.5794 28.8426 37.7666 29.3105 37.7666 29.8721C37.7666 30.4255 37.5794 30.8934 37.2051 31.2759C36.8307 31.6502 36.3628 31.8374 35.8013 31.8374ZM27 35.1333C25.9746 35.1333 24.8923 35.1211 23.7529 35.0967C22.6136 35.0723 21.4946 35.0397 20.396 34.999C19.2974 34.9502 18.2882 34.8973 17.3687 34.8403C16.4572 34.7834 15.7126 34.7223 15.1348 34.6572C14.3128 34.5596 13.6781 34.2869 13.2305 33.8394C12.7829 33.3918 12.5591 32.7773 12.5591 31.9961V29.8477C12.5591 29.1559 12.6079 28.5537 12.7056 28.041C12.8114 27.5202 12.9741 27.036 13.1938 26.5884C13.4217 26.1326 13.7269 25.6606 14.1094 25.1724L15.1348 23.8418C15.2812 23.1094 15.4603 22.3851 15.6719 21.6689C15.8835 20.9528 16.091 20.3099 16.2944 19.7402C16.4979 19.1706 16.6729 18.7352 16.8193 18.4341C17.1449 17.7424 17.6128 17.193 18.2231 16.7861C18.8335 16.3711 19.5456 16.1147 20.3594 16.0171C20.6279 15.9845 21.0837 15.9561 21.7266 15.9316C22.3776 15.9072 23.1548 15.8869 24.0581 15.8706C24.9696 15.8543 25.9502 15.8462 27 15.8462C28.0498 15.8462 29.0264 15.8543 29.9297 15.8706C30.8411 15.8787 31.6183 15.895 32.2612 15.9194C32.9123 15.9438 33.3761 15.9764 33.6528 16.0171C34.4585 16.1229 35.1665 16.3792 35.7769 16.7861C36.3953 17.193 36.8674 17.7424 37.1929 18.4341C37.3312 18.7352 37.5021 19.1706 37.7056 19.7402C37.9172 20.3099 38.1247 20.9528 38.3281 21.6689C38.5397 22.3851 38.7188 23.1094 38.8652 23.8418L39.9028 25.1724C40.2772 25.6606 40.5783 26.1326 40.8062 26.5884C41.034 27.036 41.1968 27.5202 41.2944 28.041C41.3921 28.5537 41.4409 29.1559 41.4409 29.8477V31.9961C41.4409 32.7773 41.2171 33.3918 40.7695 33.8394C40.3301 34.2869 39.6953 34.5596 38.8652 34.6572C38.2874 34.7223 37.5387 34.7834 36.6191 34.8403C35.7077 34.8973 34.7026 34.9502 33.604 34.999C32.5054 35.0397 31.3864 35.0723 30.2471 35.0967C29.1077 35.1211 28.0254 35.1333 27 35.1333ZM27 33.5342C28.0417 33.5342 29.124 33.522 30.2471 33.4976C31.3783 33.4731 32.4769 33.4406 33.543 33.3999C34.609 33.3592 35.5693 33.3145 36.4238 33.2656C37.2783 33.2168 37.9497 33.1598 38.438 33.0947C38.9588 33.0378 39.321 32.875 39.5244 32.6064C39.736 32.3379 39.8418 31.9717 39.8418 31.5078V29.8477C39.8418 29.2861 39.8052 28.8101 39.7319 28.4194C39.6668 28.0207 39.5448 27.6463 39.3657 27.2964C39.1948 26.9465 38.9507 26.564 38.6333 26.1489L37.376 24.5132C37.2946 24.0737 37.1888 23.6017 37.0586 23.0972C36.9284 22.5926 36.786 22.0921 36.6313 21.5957C36.4767 21.0993 36.3221 20.6395 36.1675 20.2163C36.0129 19.7931 35.8704 19.4391 35.7402 19.1543C35.5368 18.7393 35.2438 18.4056 34.8613 18.1533C34.487 17.8929 34.0109 17.7261 33.4331 17.6528C33.1971 17.6203 32.7739 17.5877 32.1636 17.5552C31.5614 17.5226 30.8167 17.4982 29.9297 17.4819C29.0508 17.4575 28.0742 17.4453 27 17.4453C25.9339 17.4453 24.9614 17.4575 24.0825 17.4819C23.2036 17.4982 22.459 17.5226 21.8486 17.5552C21.2383 17.5877 20.8029 17.6203 20.5425 17.6528C19.9891 17.7179 19.5212 17.8807 19.1387 18.1411C18.7562 18.3934 18.4673 18.7311 18.272 19.1543C18.1418 19.4391 17.9953 19.7931 17.8325 20.2163C17.6779 20.6395 17.5233 21.0993 17.3687 21.5957C17.214 22.0921 17.0716 22.5926 16.9414 23.0972C16.8112 23.6017 16.7054 24.0737 16.624 24.5132L15.3789 26.1489C15.0615 26.564 14.8133 26.9465 14.6343 27.2964C14.4634 27.6463 14.3413 28.0207 14.2681 28.4194C14.1948 28.8101 14.1582 29.2861 14.1582 29.8477V31.5078C14.1582 31.9717 14.264 32.3379 14.4756 32.6064C14.6872 32.8669 15.0493 33.0296 15.562 33.0947C16.0584 33.1598 16.7339 33.2209 17.5884 33.2778C18.4429 33.3267 19.3991 33.3714 20.457 33.4121C21.5231 33.4447 22.6217 33.4731 23.7529 33.4976C24.8841 33.522 25.9665 33.5342 27 33.5342ZM14.8052 38.4902C14.3413 38.4902 13.9548 38.3356 13.6455 38.0264C13.3363 37.7171 13.1816 37.3346 13.1816 36.8789V33.3022L17.8569 33.9736V36.8789C17.8569 37.3346 17.7023 37.7171 17.3931 38.0264C17.0838 38.3356 16.6973 38.4902 16.2334 38.4902H14.8052ZM37.7666 38.4902C37.3109 38.4902 36.9284 38.3356 36.6191 38.0264C36.3099 37.7171 36.1553 37.3346 36.1553 36.8789V33.9736L40.8184 33.3022V36.8789C40.8184 37.3346 40.6637 37.7171 40.3545 38.0264C40.0452 38.3356 39.6628 38.4902 39.207 38.4902H37.7666Z" fill="white"/>
</svg>
